<svg xmlns="http://www.w3.org/2000/svg" viewBox="0 0 1500 700" width="1500" height="700" font-family="Arial, Helvetica, sans-serif">
  <rect width="1500" height="700" fill="#FFFFFF"/>
  <defs>
    <marker id="arrow-default" markerWidth="10" markerHeight="10" refX="8" refY="4" orient="auto" markerUnits="strokeWidth">
      <polygon points="0 0, 8 4, 0 8" fill="#555555"/>
    </marker>
    <marker id="arrow-c0" markerWidth="10" markerHeight="10" refX="8" refY="4" orient="auto" markerUnits="strokeWidth">
      <polygon points="0 0, 8 4, 0 8" fill="#EAF3FB"/>
    </marker>
    <marker id="arrow-c1" markerWidth="10" markerHeight="10" refX="8" refY="4" orient="auto" markerUnits="strokeWidth">
      <polygon points="0 0, 8 4, 0 8" fill="#E6F5F0"/>
    </marker>
    <marker id="arrow-c2" markerWidth="10" markerHeight="10" refX="8" refY="4" orient="auto" markerUnits="strokeWidth">
      <polygon points="0 0, 8 4, 0 8" fill="#FFF3D6"/>
    </marker>
    <marker id="arrow-c3" markerWidth="10" markerHeight="10" refX="8" refY="4" orient="auto" markerUnits="strokeWidth">
      <polygon points="0 0, 8 4, 0 8" fill="#FDEBE5"/>
    </marker>
    <marker id="arrow-c4" markerWidth="10" markerHeight="10" refX="8" refY="4" orient="auto" markerUnits="strokeWidth">
      <polygon points="0 0, 8 4, 0 8" fill="#F1EAFB"/>
    </marker>
  </defs>
  <rect x="3.0" y="185.0" width="771.5" height="126.0" fill="#F7FBFE" stroke="#A8C9E2" stroke-width="1" rx="8"/>
  <text x="11.0" y="201.0" font-size="14" fill="#999999" font-weight="bold">Frozen VLA token interface</text>
  <rect x="388.0" y="368.0" width="579.0" height="124.0" fill="#FFFDF6" stroke="#E3BF66" stroke-width="1" rx="8"/>
  <text x="396.0" y="384.0" font-size="14" fill="#999999" font-weight="bold">Attention distillation teacher</text>
  <rect x="753.0" y="182.0" width="324.0" height="423.0" fill="#F5FCFA" stroke="#9FD8CF" stroke-width="1" rx="8"/>
  <text x="761.0" y="198.0" font-size="14" fill="#999999" font-weight="bold">Learned scorer</text>
  <rect x="1006.0" y="188.0" width="496.0" height="306.5" fill="#F7FCFB" stroke="#9FD8CF" stroke-width="1" rx="8"/>
  <text x="1014.0" y="204.0" font-size="14" fill="#999999" font-weight="bold">Driving-aware selection</text>
  <path d="M 245.0,248.0 L 252.5,248.0" stroke="#5089B7" stroke-width="3" fill="none" marker-end="url(#arrow-default)"/>
  <path d="M 487.5,248.0 L 487.5,248.0" stroke="#5089B7" stroke-width="3" fill="none" marker-end="url(#arrow-default)"/>
  <path d="M 752.5,248.0 L 775.0,248.0" stroke="#178579" stroke-width="3" fill="none" marker-end="url(#arrow-default)"/>
  <rect x="685.6" y="230.0" width="156.2" height="16" fill="#FFFFFF" rx="3" opacity="0.85"/>
  <text x="763.8" y="242.0" font-size="13" fill="#777777" text-anchor="middle">[Normalize(vᵢ); cᵢ]</text>
  <path d="M 603.1,289.0 Q 554.6,328.1 561.5,390.0" stroke="#C08A18" stroke-width="2" fill="none" marker-end="url(#arrow-default)" stroke-dasharray="8,4"/>
  <path d="M 680.0,430.0 L 715.0,430.0" stroke="#C08A18" stroke-width="3" fill="none" marker-end="url(#arrow-default)"/>
  <rect x="623.3" y="412.0" width="148.4" height="16" fill="#FFFFFF" rx="3" opacity="0.85"/>
  <text x="697.5" y="424.0" font-size="13" fill="#777777" text-anchor="middle">attention ordering</text>
  <path d="M 862.2,469.0 L 893.6,507.0" stroke="#C76F55" stroke-width="2" fill="none" marker-end="url(#arrow-default)"/>
  <path d="M 916.5,292.0 Q 890.1,400.5 923.7,507.0" stroke="#C76F55" stroke-width="2" fill="none" marker-end="url(#arrow-default)" stroke-dasharray="8,4"/>
  <rect x="838.7" y="382.0" width="132.8" height="16" fill="#FFFFFF" rx="3" opacity="0.85"/>
  <text x="905.1" y="394.0" font-size="13" fill="#777777" text-anchor="middle">predicted scores</text>
  <path d="M 923.7,507.0 Q 950.1,398.5 916.5,292.0" stroke="#C76F55" stroke-width="3" fill="none" marker-end="url(#arrow-default)" stroke-dasharray="8,4"/>
  <rect x="888.2" y="381.0" width="93.8" height="16" fill="#FFFFFF" rx="3" opacity="0.85"/>
  <text x="935.1" y="393.0" font-size="13" fill="#777777" text-anchor="middle">optimize fθ</text>
  <path d="M 1055.0,248.0 L 1072.5,248.0" stroke="#178579" stroke-width="3" fill="none" marker-end="url(#arrow-default)"/>
  <path d="M 1267.5,248.0 L 1275.0,248.0" stroke="#178579" stroke-width="3" fill="none" marker-end="url(#arrow-default)"/>
  <path d="M 1321.6,286.0 Q 1238.4,313.1 1192.2,387.5" stroke="#526272" stroke-width="2" fill="none" marker-end="url(#arrow-default)" stroke-dasharray="3,3"/>
  <rect x="1185.1" y="306.9" width="125.0" height="16" fill="#FFFFFF" rx="3" opacity="0.85"/>
  <text x="1247.6" y="318.9" font-size="13" fill="#777777" text-anchor="middle">rank 720 tokens</text>
  <path d="M 1248.0,430.0 L 1250.0,430.0" stroke="#178579" stroke-width="3" fill="none" marker-end="url(#arrow-default)"/>
  <rect x="1163.1" y="412.0" width="171.8" height="16" fill="#FFFFFF" rx="3" opacity="0.85"/>
  <text x="1249.0" y="424.0" font-size="13" fill="#777777" text-anchor="middle">drop low-score tokens</text>
  <rect x="25.0" y="210.0" width="220.0" height="76.0" fill="#EAF3FB" stroke="#5089B7" stroke-width="2" rx="8"/>
  <text x="135.0" y="244.3" font-size="18" fill="#333333" text-anchor="middle" font-weight="bold">Three camera views</text>
  <text x="135.0" y="264.3" font-size="15" fill="#888888" text-anchor="middle">Front · Front-Left · Front-Right</text>
  <rect x="252.5" y="210.0" width="235.0" height="76.0" fill="#EAF3FB" stroke="#5089B7" stroke-width="2" rx="8"/>
  <text x="370.0" y="244.4" font-size="17" fill="#333333" text-anchor="middle" font-weight="bold">Frozen ViT → LLM projection</text>
  <text x="370.0" y="263.4" font-size="14" fill="#888888" text-anchor="middle">Layer-0 token embeddings</text>
  <rect x="487.5" y="207.0" width="265.0" height="82.0" fill="#F1EAFB" stroke="#8869B5" stroke-width="2" rx="8"/>
  <text x="620.0" y="244.4" font-size="17" fill="#333333" text-anchor="middle" font-weight="bold">720 token features</text>
  <text x="620.0" y="263.4" font-size="14" fill="#888888" text-anchor="middle">vᵢ ∈ R²⁰⁴⁸ + camera one-hot cᵢ ∈ R³</text>
  <rect x="410.0" y="390.0" width="270.0" height="80.0" fill="#FFF3D6" stroke="#C08A18" stroke-width="2" rx="8"/>
  <text x="545.0" y="426.4" font-size="17" fill="#333333" text-anchor="middle" font-weight="bold">Layer-12 attention teacher</text>
  <text x="545.0" y="445.4" font-size="14" fill="#888888" text-anchor="middle">last instruction token → 16-head average</text>
  <rect x="715.0" y="391.0" width="230.0" height="78.0" fill="#FFF3D6" stroke="#C08A18" stroke-width="2" rx="8"/>
  <text x="830.0" y="426.4" font-size="17" fill="#333333" text-anchor="middle" font-weight="bold">Teacher ranking â</text>
  <text x="830.0" y="445.4" font-size="14" fill="#888888" text-anchor="middle">720-dimensional importance ordering</text>
  <rect x="795.0" y="507.0" width="260.0" height="76.0" fill="#FDEBE5" stroke="#C76F55" stroke-width="2" rx="8"/>
  <text x="925.0" y="541.5" font-size="17" fill="#333333" text-anchor="middle" font-weight="bold">LambdaRank loss</text>
  <text x="925.0" y="560.5" font-size="14" fill="#888888" text-anchor="middle">ΔNDCG-weighted pairwise ordering</text>
  <rect x="775.0" y="204.0" width="280.0" height="88.0" fill="#E6F5F0" stroke="#178579" stroke-width="2" rx="8"/>
  <text x="915.0" y="244.3" font-size="18" fill="#333333" text-anchor="middle" font-weight="bold">0.6M MLP scorer fθ</text>
  <text x="915.0" y="264.3" font-size="15" fill="#888888" text-anchor="middle">LN → Linear(2051,256) → GELU → score</text>
  <rect x="1072.5" y="210.0" width="195.0" height="76.0" fill="#FDEBE5" stroke="#C76F55" stroke-width="2" rx="8"/>
  <text x="1170.0" y="244.3" font-size="18" fill="#333333" text-anchor="middle" font-weight="bold">Importance scores</text>
  <text x="1170.0" y="264.3" font-size="15" fill="#888888" text-anchor="middle">fθ(xᵢ): high → low</text>
  <rect x="1275.0" y="210.0" width="190.0" height="76.0" fill="#E6F5F0" stroke="#178579" stroke-width="2" rx="8"/>
  <text x="1370.0" y="244.3" font-size="18" fill="#333333" text-anchor="middle" font-weight="bold">Top-K selection</text>
  <text x="1370.0" y="264.3" font-size="15" fill="#888888" text-anchor="middle">K = floor(kN)</text>
  <rect x="1028.0" y="387.5" width="220.0" height="85.0" fill="#F7F9FB" stroke="#8092A3" stroke-width="2" rx="8"/>
  <text x="1138.0" y="426.3" font-size="18" fill="#333333" text-anchor="middle" font-weight="bold">Full token grid</text>
  <text x="1138.0" y="446.3" font-size="15" fill="#888888" text-anchor="middle">3 views × 240 tokens</text>
  <rect x="1250.0" y="387.5" width="230.0" height="85.0" fill="#E6F5F0" stroke="#178579" stroke-width="2" rx="8"/>
  <text x="1365.0" y="426.3" font-size="18" fill="#333333" text-anchor="middle" font-weight="bold">Driving-aware kept tokens</text>
  <text x="1365.0" y="446.3" font-size="15" fill="#888888" text-anchor="middle">retain agents, lanes, near-field hazards</text>
  <text x="750.0" y="42.0" font-size="27" fill="#17365D" text-anchor="middle">Stage 1: Driving-Aware Token Scorer (Which Tokens to Keep)</text>
  <text x="750.0" y="70.0" font-size="16" fill="#526272" text-anchor="middle">Frozen VLA attention supplies an ordering teacher; LambdaRank trains a lightweight scorer to select driving-relevant tokens.</text>
  <text x="742.0" y="122.0" font-size="15" fill="#A45A25" text-anchor="middle">TRAINING</text>
  <text x="1268.0" y="122.0" font-size="15" fill="#0B655E" text-anchor="middle">INFERENCE</text>
  <text x="750.0" y="664.0" font-size="15" fill="#526272" text-anchor="middle">Each colored cell is a vision token. Coral = retained; light gray = removed.</text>
</svg>
